{"title":"Ex.On.The.Beach.S01E08.Finale.576i.PDTV.MPEG-LEE","uid":10334326,"size":876640920,"categoryP":"video","categoryS":"tv_shows","magnet":"?xt=urn:btih:7f5d872cedca172efee6ba47643d1d5800f8491f&amp;dn=Ex.On.The.Beach.S01E08.Finale.576i.PDTV.MPEG-LEE&amp;tr=udp%3A%2F%2Ftracker.openbittorrent.com%3A80&amp;tr=udp%3A%2F%2Fopen.demonii.com%3A1337&amp;tr=udp%3A%2F%2Ftracker.coppersurfer.tk%3A6969&amp;tr=udp%3A%2F%2Fexodus.desync.com%3A6969","seeders":1,"leechers":0,"uploader":"W33DandSHANE","files":1,"time":1402449635,"description":"notes This as not been encoded in any way its stright DVB-S stream from mtv+1 remuxed from .ts to .mkv dont like it dont download :)\n\n\nEx On The Beach\n\nWith Ricci causing shockwaves, a divide forms in the group. Ash loses it with Liam and Dan threatens to lose it with Ricci. Ricci and Vicky attempt some form of closure. Last in The Series. (S1, ep8)\n\nComplete name : Ex.On.The.Beach.S01E08.Finale.576i.PDTV.MPEG-LEE.mkv\nFormat : Matroska\nFormat version : Version 2\nFile size : 836 MiB\nDuration : 43mn 17s\nOverall bit rate mode : Variable\nOverall bit rate : 2 700 Kbps\nWriting application : Lavf53.31.100\nWriting library : Lavf53.31.100\n\nVideo\nID : 1\nFormat : MPEG Video\nFormat version : Version 2\nFormat profile : Main@Main\nFormat settings, BVOP : No\nFormat settings, Matrix : Custom\nCodec ID : V_MPEG2\nCodec ID/Info : MPEG 1 or 2 Video\nDuration : 43mn 17s\nBit rate mode : Variable\nBit rate : 1 974 Kbps\nMaximum bit rate : 9 000 Kbps\nWidth : 544 pixels\nHeight : 576 pixels\nDisplay aspect ratio : 16:9\nOriginal display aspect ratio : 16:9\nFrame rate mode : Constant\nFrame rate : 25.000 fps\nColor space : YUV\nChroma subsampling : 4:2:0\nBit depth : 8 bits\nScan type : Interlaced\nScan order : Top Field First\nCompression mode : Lossy\nBits/(Pixel*Frame) : 0.252\nStream size : 611 MiB (73%)\nDefault : Yes\nForced : No\n\nAudio #1\nID : 2\nFormat : MPEG Audio\nFormat version : Version 1\nFormat profile : Layer 2\nCodec ID : A_MPEG/L2\nCodec ID/Hint : MP2\nDuration : 43mn 17s\nBit rate mode : Constant\nBit rate : 96.0 Kbps\nChannel(s) : 1 channel\nSampling rate : 48.0 KHz\nCompression mode : Lossy\nDelay relative to video : -1mn 5s\nStream size : 29.7 MiB (4%)\nLanguage : English\nDefault : No\nForced : No\n\nAudio #2\nID : 3\nFormat : MPEG Audio\nFormat version : Version 1\nFormat profile : Layer 2\nCodec ID : A_MPEG/L2\nCodec ID/Hint : MP2\nDuration : 43mn 17s\nBit rate mode : Constant\nBit rate : 64.0 Kbps\nChannel(s) : 1 channel\nSampling rate : 48.0 KHz\nCompression mode : Lossy\nDelay relative to video : -1mn 5s\nStream size : 19.8 MiB (2%)\nLanguage : English\nDefault : No\nForced : No\n\nAudio #3\nID : 4\nFormat : MPEG Audio\nFormat version : Version 1\nFormat profile : Layer 2\nCodec ID : A_MPEG/L2\nCodec ID/Hint : MP2\nDuration : 43mn 17s\nBit rate mode : Constant\nBit rate : 256 Kbps\nChannel(s) : 2 channels\nSampling rate : 48.0 KHz\nCompression mode : Lossy\nDelay relative to video : -1mn 5s\nStream size : 79.3 MiB (9%)\nLanguage : English\nDefault : Yes\nForced : No\n\nAudio #4\nID : 5\nFormat : MPEG Audio\nFormat version : Version 1\nFormat profile : Layer 2\nCodec ID : A_MPEG/L2\nCodec ID/Hint : MP2\nDuration : 43mn 17s\nBit rate mode : Constant\nBit rate : 256 Kbps\nChannel(s) : 2 channels\nSampling rate : 48.0 KHz\nCompression mode : Lossy\nDelay relative to video : -1mn 5s\nStream size : 79.3 MiB (9%)\nLanguage : English\nDefault : No\nForced : No","torrent":{"xt":"urn:btih:7f5d872cedca172efee6ba47643d1d5800f8491f","amp;dn":"Ex.On.The.Beach.S01E08.Finale.576i.PDTV.MPEG-LEE","amp;tr":["udp%3A%2F%2Ftracker.openbittorrent.com%3A80","udp%3A%2F%2Fopen.demonii.com%3A1337","udp%3A%2F%2Ftracker.coppersurfer.tk%3A6969","udp%3A%2F%2Fexodus.desync.com%3A6969"],"infoHash":"7f5d872cedca172efee6ba47643d1d5800f8491f","infoHashBuffer":{"type":"Buffer","data":[127,93,135,44,237,202,23,46,254,230,186,71,100,61,29,88,0,248,73,31]},"announce":[],"urlList":[]}}